<svg xmlns="http://www.w3.org/2000/svg" viewBox="0 0 512 512" fill="none" xmlns:xlink="http://www.w3.org/1999/xlink">
  <rect width="512" height="512" fill="none"/>
  <path d="M256 0C114.615 0 0 114.615 0 256C0 397.385 114.615 512 256 512C397.385 512 512 397.385 512 256C512 114.615 397.385 0 256 0ZM256 480C132.288 480 32 379.712 32 256C32 132.288 132.288 32 256 32C379.712 32 480 132.288 480 256C480 379.712 379.712 480 256 480Z" fill="rgba(0,0,0,0)"/>
  <path d="M256 128C256 128 192 192 192 256C192 320 256 384 256 384C256 384 320 320 320 256C320 192 256 128 256 128ZM256 352C220.288 352 192 323.712 192 288C192 252.288 220.288 224 256 224C291.712 224 320 252.288 320 288C320 323.712 291.712 352 256 352Z" fill="#4CAF50"/>
  <path d="M256 0C114.615 0 0 114.615 0 256C0 397.385 114.615 512 256 512C397.385 512 512 397.385 512 256C512 114.615 397.385 0 256 0ZM256 480C132.288 480 32 379.712 32 256C32 132.288 132.288 32 256 32C379.712 32 480 132.288 480 256C480 379.712 379.712 480 256 480Z" fill-opacity="0.5"/>
</svg>